<svg width="30" height="31" viewBox="0 0 30 31" fill="none" xmlns="http://www.w3.org/2000/svg">
<path d="M24.5637 7.10102C24.5815 6.82545 24.3725 6.58766 24.0969 6.56991L19.6062 6.28057C19.3306 6.26282 19.0929 6.47182 19.0751 6.74739C19.0574 7.02296 19.2664 7.26075 19.542 7.27851L23.5337 7.53569L23.2769 11.5274C23.2592 11.803 23.4682 12.0408 23.7437 12.0586C24.0193 12.0763 24.2571 11.8673 24.2748 11.5917L24.5637 7.10102ZM18.9727 12.2106L24.3949 7.44443L23.7347 6.69332L18.3125 11.4595L18.9727 12.2106Z" fill="black"/>
<circle cx="8.48151" cy="8.48151" r="7.98151" transform="matrix(0.70686 -0.707354 0.70686 0.707354 0.831406 17.3716)" stroke="black"/>
</svg>
