<svg width="30" height="30" viewBox="0 0 30 30" fill="none" xmlns="http://www.w3.org/2000/svg">
<circle cx="15" cy="11.75" r="5.75" stroke="black"/>
<path d="M24.5 24.796C24.5 25.6352 24.269 26.1629 23.9101 26.5209C23.537 26.8932 22.9635 27.1448 22.1604 27.298C21.36 27.4508 20.3885 27.4956 19.2723 27.4997C18.7167 27.5017 18.1325 27.4937 17.5214 27.4851L17.4799 27.4845C16.8829 27.4761 16.2616 27.4674 15.625 27.4674C14.9884 27.4674 14.3671 27.4761 13.7701 27.4845L13.7286 27.4851C13.1175 27.4937 12.5333 27.5017 11.9777 27.4997C10.8615 27.4956 9.89005 27.4508 9.08958 27.298C8.28653 27.1448 7.71302 26.8932 7.33986 26.5209C6.98096 26.1629 6.75 25.6352 6.75 24.796C6.75 23.1194 7.68648 21.5572 9.28933 20.3953C10.8916 19.2338 13.13 18.5 15.625 18.5C18.12 18.5 20.3584 19.2338 21.9607 20.3953C23.5635 21.5572 24.5 23.1194 24.5 24.796Z" stroke="black"/>
<path d="M7 11.8702C7 12.948 7.3166 13.9874 7.54868 14.7494C7.58124 14.8563 7.61214 14.9577 7.64026 15.053C7.69915 15.2526 7.74506 15.4208 7.7744 15.5626C7.78942 15.6352 7.79847 15.6935 7.80335 15.7396C7.65341 15.7203 7.45576 15.6492 7.22537 15.5009C6.95557 15.3271 6.67099 15.0661 6.41096 14.7311C5.88974 14.0597 5.5 13.1345 5.5 12.1226C5.5 11.1107 5.88974 10.1855 6.41096 9.51409C6.67099 9.17912 6.95557 8.9181 7.22537 8.74433C7.44267 8.60439 7.63083 8.5332 7.77731 8.50937C7.74941 8.61794 7.70585 8.75032 7.64783 8.91627C7.62765 8.97401 7.60605 9.03473 7.58343 9.09831C7.34708 9.76277 7 10.7385 7 11.8702Z" stroke="black"/>
<path d="M23 11.8702C23 12.948 22.6834 13.9874 22.4513 14.7494C22.4188 14.8563 22.3879 14.9577 22.3597 15.053C22.3008 15.2526 22.2549 15.4208 22.2256 15.5626C22.2106 15.6352 22.2015 15.6935 22.1967 15.7396C22.3466 15.7203 22.5442 15.6492 22.7746 15.5009C23.0444 15.3271 23.329 15.0661 23.589 14.7311C24.1103 14.0597 24.5 13.1345 24.5 12.1226C24.5 11.1107 24.1103 10.1855 23.589 9.51409C23.329 9.17912 23.0444 8.9181 22.7746 8.74433C22.5573 8.60439 22.3692 8.5332 22.2227 8.50937C22.2506 8.61794 22.2941 8.75032 22.3522 8.91627C22.3724 8.97401 22.394 9.03473 22.4166 9.09831C22.6529 9.76277 23 10.7385 23 11.8702Z" stroke="black"/>
<path d="M8.37281 7.42083C8.2408 7.58265 8.12204 7.73901 8.01552 7.8859C8.12005 6.86216 8.75859 5.8815 9.83133 5.09129C11.1358 4.13041 13.0308 3.5 15.1504 3.5C19.1188 3.5 21.6164 5.50243 21.9594 7.87991C21.863 7.75066 21.7569 7.61368 21.6408 7.47197C20.5401 6.12939 18.5358 4.375 15 4.375C11.4699 4.375 9.47148 6.07394 8.37281 7.42083Z" stroke="black"/>
</svg>
