<svg width="30" height="30" viewBox="0 0 30 30" fill="none" xmlns="http://www.w3.org/2000/svg">
<path d="M15.2764 6.72714L15.5 6.83895L15.7236 6.72714C18.2024 5.48772 21.2364 4.43256 23.6101 4.50336C24.7877 4.53848 25.7426 4.84849 26.4029 5.48524C27.0574 6.11631 27.5 7.14337 27.5 8.77995C27.5 12.058 25.7124 15.382 23.247 18.229C20.8629 20.9823 17.901 23.2237 15.5 24.4689C13.099 23.2237 10.1371 20.9823 7.75298 18.229C5.28765 15.382 3.5 12.058 3.5 8.77995C3.5 7.14337 3.94257 6.11631 4.59706 5.48524C5.25743 4.84849 6.21232 4.53848 7.38991 4.50336C9.76359 4.43256 12.7976 5.48772 15.2764 6.72714Z" stroke="black"/>
</svg>
