<svg width="1227" height="364" viewBox="0 0 1227 364" fill="none" xmlns="http://www.w3.org/2000/svg">
<rect width="607" height="364" fill="white"/>
<rect x="607" width="620" height="364" fill="#96192F"/>
<path d="M169.973 229V112.789H178.771V229H169.973ZM186.408 177.701V169.234H208.82C211.809 169.234 214.52 168.958 216.955 168.404C226.363 166.08 231.066 158.167 231.066 144.664C231.066 141.233 230.734 138.134 230.07 135.367C227.746 125.738 220.607 120.924 208.654 120.924H186.408V112.789H211.975C213.635 112.9 215.295 113.066 216.955 113.287C232.339 115.501 240.031 126.07 240.031 144.996C240.031 149.534 239.589 153.684 238.703 157.447C235.715 170.507 226.805 177.258 211.975 177.701H186.408ZM270.06 196.959V112.789H278.859V196.959C278.859 205.813 283.397 212.73 292.472 217.711C296.678 220.035 300.275 221.197 303.263 221.197V229.83C296.955 229.83 290.535 227.617 284.005 223.189C274.819 216.66 270.171 207.916 270.06 196.959ZM311.066 229.83V221.197C315.714 221.197 320.529 219.371 325.509 215.719C332.039 210.849 335.36 204.596 335.47 196.959V112.789H344.269V196.959C344.269 209.355 338.68 218.707 327.502 225.016C321.746 228.225 316.268 229.83 311.066 229.83ZM378.116 229V112.789H386.915V229H378.116ZM394.552 176.871V168.57H417.96C428.364 168.57 434.672 164.199 436.886 155.455C437.661 152.467 438.048 148.98 438.048 144.996C438.048 132.047 433.455 124.244 424.269 121.588C421.391 120.813 418.071 120.426 414.308 120.426H394.552V112.789H417.628C436.997 113.896 446.736 124.632 446.847 144.996C446.736 158.941 442.918 168.183 435.392 172.721C443.029 176.262 447.234 183.014 448.009 192.975L450.831 229H442.198L439.708 199.449C438.823 189.599 436.499 183.18 432.736 180.191C429.637 177.867 425.265 176.76 419.62 176.871H394.552ZM482.52 229V112.789H542.95V121.256H491.319V166.744H527.345V175.377H491.319V220.533H542.95V229H482.52Z" fill="#96192F"/>
<path d="M634.883 202.77L642.852 199.947C644.844 210.13 650.765 216.826 660.615 220.035C664.157 220.81 665.928 221.197 665.928 221.197V229.498C655.967 229.498 647.666 225.292 641.025 216.881C637.041 211.79 634.993 207.086 634.883 202.77ZM636.211 143.834C636.211 131.992 641.413 123.082 651.816 117.105C656.797 114.228 661.501 112.789 665.928 112.789V121.09C661.943 121.201 657.738 123.027 653.311 126.568C647.777 131.327 644.954 137.304 644.844 144.498C644.844 152.799 650.82 158.72 662.773 162.262C663.991 162.704 670.244 164.088 681.533 166.412C683.747 166.855 685.518 167.298 686.846 167.74C697.028 170.839 703.503 176.096 706.27 183.512C707.487 186.943 708.096 190.816 708.096 195.133C708.096 204.54 704.388 212.73 696.973 219.703C690.111 226.233 682.308 229.498 673.564 229.498V221.197C678.434 221.197 683.581 218.984 689.004 214.557C695.755 208.912 699.186 202.216 699.297 194.469C699.297 185.061 692.933 178.587 680.205 175.045C679.209 174.824 673.343 173.661 662.607 171.559C659.951 171.005 657.959 170.507 656.631 170.064C647.666 166.523 641.8 162.151 639.033 156.949C637.152 153.297 636.211 148.925 636.211 143.834ZM673.564 121.09V112.789C683.525 112.789 691.771 117.327 698.301 126.402C701.178 130.387 702.894 133.984 703.447 137.193L695.146 139.85C694.261 136.529 692.933 133.596 691.162 131.051C689.391 128.505 687.51 126.624 685.518 125.406C683.525 124.189 681.589 123.248 679.707 122.584C677.936 121.809 676.442 121.367 675.225 121.256L673.564 121.09ZM736.298 121.256V112.789H808.183V121.256H776.64V229H767.841V121.256H736.298ZM838.876 229V112.789H847.675V229H838.876ZM878.202 121.256V112.789H950.087V121.256H918.544V229H909.745V121.256H878.202ZM980.448 198.951V143.004C980.448 138.134 981.997 133.043 985.096 127.73C991.405 117.105 1000.92 111.848 1013.65 111.959V120.426C1006.35 120.536 1000.31 123.193 995.555 128.395C991.349 133.043 989.246 137.913 989.246 143.004V198.951C989.246 202.05 990.243 205.426 992.235 209.078C996.994 217.268 1004.13 221.363 1013.65 221.363V229.83C1002.69 229.719 994.006 225.68 987.586 217.711C982.827 211.624 980.448 205.37 980.448 198.951ZM1021.29 229.83V221.363L1025.77 220.699C1028.76 220.367 1032.08 218.873 1035.73 216.217C1039.49 213.561 1042.09 209.908 1043.53 205.26C1043.98 203.71 1044.31 201.939 1044.53 199.947C1044.75 199.062 1044.86 198.066 1044.86 196.959L1052.83 198.785C1052.83 206.533 1050.06 213.45 1044.53 219.537C1038.11 226.399 1030.36 229.83 1021.29 229.83ZM1021.29 120.426V111.959C1028.81 111.959 1035.79 114.892 1042.21 120.758C1049.29 127.288 1052.83 134.814 1052.83 143.336L1044.53 145.494V142.672C1044.42 141.344 1044.09 139.794 1043.53 138.023C1040.43 129.612 1034.79 124.078 1026.6 121.422C1023.06 120.758 1021.29 120.426 1021.29 120.426ZM1086.01 229V112.789H1094.81V166.246H1115.07V174.713H1094.81V229H1086.01ZM1122.87 174.713V166.246H1143.12V112.789H1151.92V229H1143.12V174.713H1122.87Z" fill="#F5F5F7"/>
</svg>
