<svg width="1197" height="364" viewBox="0 0 1197 364" fill="none" xmlns="http://www.w3.org/2000/svg">
<rect width="600" height="364" fill="white"/>
<rect x="597" width="600" height="364" fill="#96192F"/>
<path d="M824.354 296H808.584V270.198H811.206V294.024H824.354V296ZM830.953 296V277.95H833.423V296H830.953ZM830.915 274.112V270.958H833.385V274.112H830.915ZM854.225 277.95H856.619L849.703 296H847.461L840.697 277.95H843.395L848.677 293.34L854.225 277.95ZM875.824 285.474C875.773 281.446 874.164 279.432 870.998 279.432C869.376 279.432 868.16 280.027 867.35 281.218C866.539 282.333 866.058 283.751 865.906 285.474H875.824ZM876.546 280.04C877.66 281.611 878.218 283.625 878.218 286.082C878.218 286.563 878.205 286.905 878.18 287.108H865.868C865.868 289.261 866.273 290.997 867.084 292.314C867.97 293.809 869.326 294.556 871.15 294.556C873.506 294.556 875.026 293.517 875.71 291.44L877.648 291.896C877.369 292.859 876.888 293.695 876.204 294.404C875.545 295.113 874.785 295.62 873.924 295.924C873.138 296.203 872.239 296.367 871.226 296.418H871.15C868.464 296.418 866.463 295.455 865.146 293.53C863.93 291.807 863.322 289.616 863.322 286.956C863.322 284.119 864.006 281.851 865.374 280.154C866.767 278.431 868.667 277.57 871.074 277.57C873.531 277.57 875.355 278.393 876.546 280.04ZM903.699 272.44C903.446 272.871 903.294 273.339 903.243 273.846C903.167 274.606 903.129 275.315 903.129 275.974V277.95H906.663V279.812H903.129V296H900.659V279.812H897.581V277.95H900.659V275.898C900.659 273.871 900.976 272.402 901.609 271.49C902.243 270.553 903.294 270.084 904.763 270.084C905.726 270.084 906.638 270.325 907.499 270.806L906.929 272.44C906.068 272.085 905.409 271.908 904.953 271.908C904.32 271.908 903.902 272.085 903.699 272.44ZM917.61 281.826C916.901 283.245 916.546 284.955 916.546 286.956C916.546 288.577 916.774 289.996 917.23 291.212C917.686 292.605 918.497 293.568 919.662 294.1C920.27 294.404 920.967 294.556 921.752 294.556C923.297 294.556 924.501 294.024 925.362 292.96C926.122 292.023 926.603 290.769 926.806 289.198C926.907 288.59 926.958 287.843 926.958 286.956C926.958 285.411 926.73 284.005 926.274 282.738C925.767 281.345 924.957 280.382 923.842 279.85C923.158 279.571 922.461 279.432 921.752 279.432C919.776 279.432 918.395 280.23 917.61 281.826ZM927.376 280.04C928.795 281.661 929.504 283.967 929.504 286.956C929.504 289.945 928.807 292.276 927.414 293.948C926.046 295.595 924.159 296.418 921.752 296.418C919.345 296.418 917.445 295.595 916.052 293.948C914.684 292.301 914 289.983 914 286.994C914 283.979 914.697 281.661 916.09 280.04C917.483 278.393 919.371 277.57 921.752 277.57C924.108 277.57 925.983 278.393 927.376 280.04ZM940.301 277.95V281.332C940.631 280.572 941.099 279.913 941.707 279.356C942.315 278.799 942.961 278.419 943.645 278.216C944.253 278.039 944.925 277.95 945.659 277.95V280.23C943.709 280.23 942.328 280.889 941.517 282.206C940.757 283.397 940.377 284.866 940.377 286.614V296H937.869V277.95H940.301ZM965.285 269.666H967.793V276.582V280.762C968.832 278.634 970.732 277.57 973.493 277.57C975.646 277.57 977.331 278.419 978.547 280.116C979.788 281.813 980.409 284.157 980.409 287.146C980.409 289.983 979.776 292.238 978.509 293.91C977.268 295.582 975.532 296.418 973.303 296.418C971.986 296.418 970.82 296.139 969.807 295.582C968.794 294.999 968.059 294.189 967.603 293.15L967.261 296H965.285V269.666ZM970.149 280.382C969.161 281.142 968.464 282.282 968.059 283.802C967.831 284.689 967.717 285.689 967.717 286.804C967.717 292.023 969.49 294.632 973.037 294.632C974.532 294.632 975.71 293.935 976.571 292.542C977.432 291.123 977.863 289.223 977.863 286.842C977.863 284.689 977.407 282.915 976.495 281.522C975.608 280.129 974.443 279.432 972.999 279.432C971.935 279.432 970.985 279.749 970.149 280.382ZM1000.78 285.474C1000.73 281.446 999.118 279.432 995.951 279.432C994.33 279.432 993.114 280.027 992.303 281.218C991.492 282.333 991.011 283.751 990.859 285.474H1000.78ZM1001.5 280.04C1002.61 281.611 1003.17 283.625 1003.17 286.082C1003.17 286.563 1003.16 286.905 1003.13 287.108H990.821C990.821 289.261 991.226 290.997 992.037 292.314C992.924 293.809 994.279 294.556 996.103 294.556C998.459 294.556 999.979 293.517 1000.66 291.44L1002.6 291.896C1002.32 292.859 1001.84 293.695 1001.16 294.404C1000.5 295.113 999.738 295.62 998.877 295.924C998.092 296.203 997.192 296.367 996.179 296.418H996.103C993.418 296.418 991.416 295.455 990.099 293.53C988.883 291.807 988.275 289.616 988.275 286.956C988.275 284.119 988.959 281.851 990.327 280.154C991.72 278.431 993.62 277.57 996.027 277.57C998.484 277.57 1000.31 278.393 1001.5 280.04ZM1022.38 282.054C1021.67 280.331 1020.17 279.47 1017.86 279.47C1014.9 279.47 1013.42 280.521 1013.42 282.624C1013.42 283.384 1013.71 284.005 1014.29 284.486C1014.75 284.917 1015.52 285.233 1016.61 285.436C1017.01 285.563 1017.52 285.677 1018.13 285.778C1020.23 286.158 1021.78 286.753 1022.76 287.564C1023.75 288.349 1024.25 289.477 1024.25 290.946C1024.25 294.594 1021.86 296.418 1017.1 296.418C1015.58 296.418 1014.25 296.114 1013.11 295.506C1011.79 294.797 1010.91 293.631 1010.45 292.01L1012.35 291.288C1012.78 292.428 1013.38 293.251 1014.14 293.758C1014.92 294.265 1016 294.518 1017.37 294.518C1020.43 294.518 1021.97 293.492 1021.97 291.44C1021.97 290.325 1021.61 289.527 1020.9 289.046C1020.19 288.59 1018.71 288.134 1016.46 287.678C1015.32 287.425 1014.26 287.057 1013.3 286.576C1012.41 286.171 1011.77 285.449 1011.36 284.41C1011.16 283.853 1011.06 283.245 1011.06 282.586C1011.06 281.041 1011.67 279.825 1012.88 278.938C1014.1 278.026 1015.71 277.57 1017.71 277.57C1019.36 277.57 1020.67 277.849 1021.66 278.406C1022.67 278.938 1023.49 279.837 1024.09 281.104L1022.38 282.054ZM1041.1 295.43C1040.22 296.013 1039.18 296.304 1037.99 296.304C1036.42 296.304 1035.28 295.835 1034.57 294.898C1033.88 293.935 1033.54 292.39 1033.54 290.262V279.736H1030.88V277.95H1033.73V272.212L1036.09 271.566V277.95H1040V279.736H1036.09V291.402C1036.09 293.403 1036.9 294.404 1038.52 294.404C1039.05 294.404 1039.76 294.201 1040.65 293.796L1041.1 295.43Z" fill="white"/>
<path d="M256.973 229V112.789H265.771V229H256.973ZM273.408 177.701V169.234H295.82C298.809 169.234 301.52 168.958 303.955 168.404C313.363 166.08 318.066 158.167 318.066 144.664C318.066 141.233 317.734 138.134 317.07 135.367C314.746 125.738 307.607 120.924 295.654 120.924H273.408V112.789H298.975C300.635 112.9 302.295 113.066 303.955 113.287C319.339 115.501 327.031 126.07 327.031 144.996C327.031 149.534 326.589 153.684 325.703 157.447C322.715 170.507 313.805 177.258 298.975 177.701H273.408ZM336.66 196.959V112.789H345.459V196.959C345.459 205.813 349.997 212.73 359.072 217.711C363.278 220.035 366.875 221.197 369.863 221.197V229.83C363.555 229.83 357.135 227.617 350.605 223.189C341.419 216.66 336.771 207.916 336.66 196.959ZM377.666 229.83V221.197C382.314 221.197 387.129 219.371 392.109 215.719C398.639 210.849 401.96 204.596 402.07 196.959V112.789H410.869V196.959C410.869 209.355 405.28 218.707 394.102 225.016C388.346 228.225 382.868 229.83 377.666 229.83ZM424.316 229V112.789H433.115V229H424.316ZM440.752 176.871V168.57H464.16C474.564 168.57 480.872 164.199 483.086 155.455C483.861 152.467 484.248 148.98 484.248 144.996C484.248 132.047 479.655 124.244 470.469 121.588C467.591 120.813 464.271 120.426 460.508 120.426H440.752V112.789H463.828C483.197 113.896 492.936 124.632 493.047 144.996C492.936 158.941 489.118 168.183 481.592 172.721C489.229 176.262 493.434 183.014 494.209 192.975L497.031 229H488.398L485.908 199.449C485.023 189.599 482.699 183.18 478.936 180.191C475.837 177.867 471.465 176.76 465.82 176.871H440.752ZM508.32 229V112.789H568.75V121.256H517.119V166.744H553.145V175.377H517.119V220.533H568.75V229H508.32Z" fill="#96192F"/>
<path d="M619.883 202.77L627.852 199.947C629.844 210.13 635.765 216.826 645.615 220.035C649.157 220.81 650.928 221.197 650.928 221.197V229.498C640.967 229.498 632.666 225.292 626.025 216.881C622.041 211.79 619.993 207.086 619.883 202.77ZM621.211 143.834C621.211 131.992 626.413 123.082 636.816 117.105C641.797 114.228 646.501 112.789 650.928 112.789V121.09C646.943 121.201 642.738 123.027 638.311 126.568C632.777 131.327 629.954 137.304 629.844 144.498C629.844 152.799 635.82 158.72 647.773 162.262C648.991 162.704 655.244 164.088 666.533 166.412C668.747 166.855 670.518 167.298 671.846 167.74C682.028 170.839 688.503 176.096 691.27 183.512C692.487 186.943 693.096 190.816 693.096 195.133C693.096 204.54 689.388 212.73 681.973 219.703C675.111 226.233 667.308 229.498 658.564 229.498V221.197C663.434 221.197 668.581 218.984 674.004 214.557C680.755 208.912 684.186 202.216 684.297 194.469C684.297 185.061 677.933 178.587 665.205 175.045C664.209 174.824 658.343 173.661 647.607 171.559C644.951 171.005 642.959 170.507 641.631 170.064C632.666 166.523 626.8 162.151 624.033 156.949C622.152 153.297 621.211 148.925 621.211 143.834ZM658.564 121.09V112.789C668.525 112.789 676.771 117.327 683.301 126.402C686.178 130.387 687.894 133.984 688.447 137.193L680.146 139.85C679.261 136.529 677.933 133.596 676.162 131.051C674.391 128.505 672.51 126.624 670.518 125.406C668.525 124.189 666.589 123.248 664.707 122.584C662.936 121.809 661.442 121.367 660.225 121.256L658.564 121.09ZM700.898 121.256V112.789H772.783V121.256H741.24V229H732.441V121.256H700.898ZM783.076 229V112.789H791.875V229H783.076ZM802.002 121.256V112.789H873.887V121.256H842.344V229H833.545V121.256H802.002ZM883.848 198.951V143.004C883.848 138.134 885.397 133.043 888.496 127.73C894.805 117.105 904.323 111.848 917.051 111.959V120.426C909.746 120.536 903.714 123.193 898.955 128.395C894.749 133.043 892.646 137.913 892.646 143.004V198.951C892.646 202.05 893.643 205.426 895.635 209.078C900.394 217.268 907.533 221.363 917.051 221.363V229.83C906.094 229.719 897.406 225.68 890.986 217.711C886.227 211.624 883.848 205.37 883.848 198.951ZM924.688 229.83V221.363L929.17 220.699C932.158 220.367 935.479 218.873 939.131 216.217C942.894 213.561 945.495 209.908 946.934 205.26C947.376 203.71 947.708 201.939 947.93 199.947C948.151 199.062 948.262 198.066 948.262 196.959L956.23 198.785C956.23 206.533 953.464 213.45 947.93 219.537C941.51 226.399 933.763 229.83 924.688 229.83ZM924.688 120.426V111.959C932.214 111.959 939.186 114.892 945.605 120.758C952.689 127.288 956.23 134.814 956.23 143.336L947.93 145.494V142.672C947.819 141.344 947.487 139.794 946.934 138.023C943.835 129.612 938.19 124.078 930 121.422C926.458 120.758 924.688 120.426 924.688 120.426ZM969.014 229V112.789H977.812V166.246H998.066V174.713H977.812V229H969.014ZM1005.87 174.713V166.246H1026.12V112.789H1034.92V229H1026.12V174.713H1005.87Z" fill="#F5F5F7"/>
</svg>
